<mxfile host="app.diagrams.net" modified="2020-09-20T07:49:55.814Z" agent="5.0 (X11; Linux x86_64) AppleWebKit/537.36 (KHTML, like Gecko) Chrome/85.0.4183.102 Safari/537.36" etag="SWEW2eZqrAwT9XUALv1G" version="13.7.2" type="github">
  <diagram id="yP20fghHwXkNaPs_WLq3" name="Page-1">
    <mxGraphModel dx="2500" dy="806" grid="1" gridSize="10" guides="1" tooltips="1" connect="1" arrows="1" fold="1" page="1" pageScale="1" pageWidth="827" pageHeight="1169" math="0" shadow="0">
      <root>
        <mxCell id="0" />
        <mxCell id="1" parent="0" />
        <mxCell id="9e8V8WB4BOfyPJtOuMQp-1" style="edgeStyle=orthogonalEdgeStyle;rounded=0;html=1;exitX=0.5;exitY=0;entryX=0.5;entryY=1;dashed=1;startArrow=none;startFill=0;endArrow=none;endFill=0;jettySize=auto;orthogonalLoop=1;strokeColor=#000000;strokeWidth=2;fontSize=20;" edge="1" parent="1" source="9e8V8WB4BOfyPJtOuMQp-8" target="9e8V8WB4BOfyPJtOuMQp-7">
          <mxGeometry relative="1" as="geometry" />
        </mxCell>
        <mxCell id="9e8V8WB4BOfyPJtOuMQp-2" style="edgeStyle=orthogonalEdgeStyle;rounded=0;html=1;exitX=1;exitY=0.5;entryX=0;entryY=0.5;startArrow=none;startFill=0;endArrow=none;endFill=0;jettySize=auto;orthogonalLoop=1;strokeColor=#000000;strokeWidth=2;fontSize=12;dashed=1;" edge="1" parent="1" source="9e8V8WB4BOfyPJtOuMQp-3" target="9e8V8WB4BOfyPJtOuMQp-6">
          <mxGeometry relative="1" as="geometry" />
        </mxCell>
        <mxCell id="9e8V8WB4BOfyPJtOuMQp-3" value="&lt;b style=&quot;font-size: 24px&quot;&gt;r&lt;sub&gt;1&lt;/sub&gt;&lt;/b&gt;" style="ellipse;whiteSpace=wrap;html=1;aspect=fixed;strokeWidth=1;fillColor=#FFFFFF;" vertex="1" parent="1">
          <mxGeometry x="921" y="640" width="80" height="80" as="geometry" />
        </mxCell>
        <mxCell id="9e8V8WB4BOfyPJtOuMQp-4" value="&lt;b style=&quot;font-size: 24px&quot;&gt;r&lt;/b&gt;&lt;b style=&quot;font-size: 20px&quot;&gt;&lt;sub&gt;2&lt;/sub&gt;&lt;/b&gt;" style="ellipse;whiteSpace=wrap;html=1;aspect=fixed;strokeWidth=1;fillColor=#FFFFFF;" vertex="1" parent="1">
          <mxGeometry x="1080" y="640" width="80" height="80" as="geometry" />
        </mxCell>
        <mxCell id="9e8V8WB4BOfyPJtOuMQp-5" value="&lt;b style=&quot;font-size: 24px&quot;&gt;r&lt;/b&gt;&lt;b style=&quot;font-size: 20px&quot;&gt;&lt;sub&gt;3&lt;/sub&gt;&lt;/b&gt;" style="ellipse;whiteSpace=wrap;html=1;aspect=fixed;strokeWidth=1;fillColor=#FFFFFF;" vertex="1" parent="1">
          <mxGeometry x="1240" y="640" width="80" height="80" as="geometry" />
        </mxCell>
        <mxCell id="9e8V8WB4BOfyPJtOuMQp-6" value="&lt;b style=&quot;font-size: 24px&quot;&gt;r&lt;/b&gt;&lt;b&gt;&lt;sub&gt;4&lt;/sub&gt;&lt;/b&gt;" style="ellipse;whiteSpace=wrap;html=1;aspect=fixed;strokeWidth=1;fillColor=#FFFFFF;fontSize=20;fontStyle=1" vertex="1" parent="1">
          <mxGeometry x="1400" y="640" width="80" height="80" as="geometry" />
        </mxCell>
        <mxCell id="9e8V8WB4BOfyPJtOuMQp-7" value="&lt;b style=&quot;font-size: 24px&quot;&gt;r&lt;/b&gt;&lt;b&gt;&lt;sub&gt;5&lt;/sub&gt;&lt;/b&gt;" style="ellipse;whiteSpace=wrap;html=1;aspect=fixed;strokeWidth=1;fillColor=#FFFFFF;fontSize=20;fontStyle=1" vertex="1" parent="1">
          <mxGeometry x="1240" y="520" width="80" height="80" as="geometry" />
        </mxCell>
        <mxCell id="9e8V8WB4BOfyPJtOuMQp-8" value="&lt;b style=&quot;font-size: 24px&quot;&gt;r&lt;/b&gt;&lt;b&gt;&lt;sub&gt;6&lt;/sub&gt;&lt;/b&gt;" style="ellipse;whiteSpace=wrap;html=1;aspect=fixed;strokeWidth=1;fillColor=#FFFFFF;fontSize=20;fontStyle=1" vertex="1" parent="1">
          <mxGeometry x="1240" y="760" width="80" height="80" as="geometry" />
        </mxCell>
        <mxCell id="9e8V8WB4BOfyPJtOuMQp-9" style="edgeStyle=none;rounded=0;jumpStyle=arc;html=1;exitX=0.5;exitY=1;entryX=0.5;entryY=0;dashed=1;startArrow=none;startFill=0;endArrow=none;endFill=0;jettySize=auto;orthogonalLoop=1;strokeColor=#000000;strokeWidth=2;fontSize=16;fontColor=#000000;" edge="1" parent="1" source="9e8V8WB4BOfyPJtOuMQp-18" target="9e8V8WB4BOfyPJtOuMQp-15">
          <mxGeometry relative="1" as="geometry" />
        </mxCell>
        <mxCell id="9e8V8WB4BOfyPJtOuMQp-10" style="edgeStyle=none;rounded=0;jumpStyle=arc;html=1;exitX=1;exitY=1;entryX=0;entryY=0;startArrow=none;startFill=0;endArrow=none;endFill=0;jettySize=auto;orthogonalLoop=1;strokeColor=#000000;strokeWidth=2;fontSize=16;fontColor=#000000;dashed=1;" edge="1" parent="1" source="9e8V8WB4BOfyPJtOuMQp-18" target="9e8V8WB4BOfyPJtOuMQp-17">
          <mxGeometry relative="1" as="geometry" />
        </mxCell>
        <mxCell id="9e8V8WB4BOfyPJtOuMQp-11" style="edgeStyle=none;rounded=0;jumpStyle=arc;html=1;exitX=1;exitY=0.5;entryX=0;entryY=0.5;dashed=1;startArrow=none;startFill=0;endArrow=none;endFill=0;jettySize=auto;orthogonalLoop=1;strokeColor=#000000;strokeWidth=2;fontSize=16;fontColor=#000000;" edge="1" parent="1" source="9e8V8WB4BOfyPJtOuMQp-19" target="9e8V8WB4BOfyPJtOuMQp-13">
          <mxGeometry relative="1" as="geometry" />
        </mxCell>
        <mxCell id="9e8V8WB4BOfyPJtOuMQp-12" value="&lt;b style=&quot;font-size: 24px&quot;&gt;r&lt;/b&gt;&lt;b style=&quot;font-size: 20px&quot;&gt;&lt;sub&gt;4&lt;/sub&gt;&lt;/b&gt;" style="ellipse;whiteSpace=wrap;html=1;aspect=fixed;rounded=0;fillColor=#f8cecc;fontSize=16;strokeColor=#b85450;" vertex="1" parent="1">
          <mxGeometry x="1000" y="200" width="80" height="80" as="geometry" />
        </mxCell>
        <mxCell id="9e8V8WB4BOfyPJtOuMQp-13" value="&lt;b style=&quot;font-size: 24px&quot;&gt;r&lt;/b&gt;&lt;b style=&quot;font-size: 20px&quot;&gt;&lt;sub&gt;6&lt;/sub&gt;&lt;/b&gt;" style="ellipse;whiteSpace=wrap;html=1;aspect=fixed;rounded=0;fillColor=#d5e8d4;fontSize=16;strokeColor=#82b366;" vertex="1" parent="1">
          <mxGeometry x="1120" y="200" width="80" height="80" as="geometry" />
        </mxCell>
        <mxCell id="9e8V8WB4BOfyPJtOuMQp-14" style="edgeStyle=none;rounded=0;jumpStyle=arc;html=1;exitX=1;exitY=0.5;entryX=0;entryY=0.5;dashed=1;startArrow=none;startFill=0;endArrow=none;endFill=0;jettySize=auto;orthogonalLoop=1;strokeColor=#000000;strokeWidth=2;fontSize=16;fontColor=#000000;" edge="1" parent="1" source="9e8V8WB4BOfyPJtOuMQp-15" target="9e8V8WB4BOfyPJtOuMQp-17">
          <mxGeometry relative="1" as="geometry" />
        </mxCell>
        <mxCell id="9e8V8WB4BOfyPJtOuMQp-15" value="&lt;b style=&quot;font-size: 24px&quot;&gt;r&lt;sub&gt;1&lt;/sub&gt;&lt;/b&gt;" style="ellipse;whiteSpace=wrap;html=1;aspect=fixed;rounded=0;fillColor=#dae8fc;fontSize=16;strokeColor=#6c8ebf;" vertex="1" parent="1">
          <mxGeometry x="880" y="320" width="80" height="80" as="geometry" />
        </mxCell>
        <mxCell id="9e8V8WB4BOfyPJtOuMQp-16" value="&lt;b style=&quot;font-size: 24px&quot;&gt;r&lt;/b&gt;&lt;b style=&quot;font-size: 20px&quot;&gt;&lt;sub&gt;3&lt;/sub&gt;&lt;/b&gt;" style="ellipse;whiteSpace=wrap;html=1;aspect=fixed;rounded=0;fillColor=#f5f5f5;fontSize=16;strokeColor=#666666;" vertex="1" parent="1">
          <mxGeometry x="1000" y="320" width="80" height="80" as="geometry" />
        </mxCell>
        <mxCell id="9e8V8WB4BOfyPJtOuMQp-17" value="&lt;b style=&quot;font-size: 24px&quot;&gt;r&lt;/b&gt;&lt;b style=&quot;font-size: 20px&quot;&gt;&lt;sub&gt;5&lt;/sub&gt;&lt;/b&gt;" style="ellipse;whiteSpace=wrap;html=1;aspect=fixed;rounded=0;fillColor=#dae8fc;fontSize=16;strokeColor=#6c8ebf;" vertex="1" parent="1">
          <mxGeometry x="1120" y="320" width="80" height="80" as="geometry" />
        </mxCell>
        <mxCell id="9e8V8WB4BOfyPJtOuMQp-18" value="&lt;b style=&quot;font-size: 24px&quot;&gt;r&lt;/b&gt;&lt;b style=&quot;font-size: 20px&quot;&gt;&lt;sub&gt;7&lt;/sub&gt;&lt;/b&gt;" style="ellipse;whiteSpace=wrap;html=1;aspect=fixed;rounded=0;fillColor=#ffe6cc;fontSize=16;strokeColor=#d79b00;" vertex="1" parent="1">
          <mxGeometry x="880" y="80" width="80" height="80" as="geometry" />
        </mxCell>
        <mxCell id="9e8V8WB4BOfyPJtOuMQp-19" value="&lt;b style=&quot;font-size: 24px&quot;&gt;r&lt;/b&gt;&lt;b style=&quot;font-size: 20px&quot;&gt;&lt;sub&gt;2&lt;/sub&gt;&lt;/b&gt;" style="ellipse;whiteSpace=wrap;html=1;aspect=fixed;rounded=0;fillColor=#e1d5e7;fontSize=16;strokeColor=#9673a6;" vertex="1" parent="1">
          <mxGeometry x="880" y="200" width="80" height="80" as="geometry" />
        </mxCell>
        <mxCell id="9e8V8WB4BOfyPJtOuMQp-20" style="edgeStyle=none;rounded=0;jumpStyle=arc;html=1;dashed=1;startArrow=none;startFill=0;endArrow=none;endFill=0;jettySize=auto;orthogonalLoop=1;strokeColor=#000000;strokeWidth=2;fontSize=16;fontColor=#000000;entryX=1;entryY=0;exitX=0;exitY=1;" edge="1" parent="1" source="9e8V8WB4BOfyPJtOuMQp-29" target="9e8V8WB4BOfyPJtOuMQp-26">
          <mxGeometry relative="1" as="geometry" />
        </mxCell>
        <mxCell id="9e8V8WB4BOfyPJtOuMQp-21" style="edgeStyle=none;rounded=0;jumpStyle=arc;html=1;startArrow=none;startFill=0;endArrow=none;endFill=0;jettySize=auto;orthogonalLoop=1;strokeColor=#000000;strokeWidth=2;fontSize=16;fontColor=#000000;dashed=1;" edge="1" parent="1" source="9e8V8WB4BOfyPJtOuMQp-29" target="9e8V8WB4BOfyPJtOuMQp-28">
          <mxGeometry relative="1" as="geometry" />
        </mxCell>
        <mxCell id="9e8V8WB4BOfyPJtOuMQp-22" style="edgeStyle=none;rounded=0;jumpStyle=arc;html=1;exitX=1;exitY=0.5;entryX=0;entryY=0.5;dashed=1;startArrow=none;startFill=0;endArrow=none;endFill=0;jettySize=auto;orthogonalLoop=1;strokeColor=#000000;strokeWidth=2;fontSize=16;fontColor=#000000;" edge="1" parent="1" source="9e8V8WB4BOfyPJtOuMQp-30" target="9e8V8WB4BOfyPJtOuMQp-24">
          <mxGeometry relative="1" as="geometry" />
        </mxCell>
        <mxCell id="9e8V8WB4BOfyPJtOuMQp-23" value="&lt;b style=&quot;font-size: 24px&quot;&gt;r&lt;/b&gt;&lt;b style=&quot;font-size: 20px&quot;&gt;&lt;sub&gt;4&lt;/sub&gt;&lt;/b&gt;" style="ellipse;whiteSpace=wrap;html=1;aspect=fixed;rounded=0;fillColor=#f8cecc;fontSize=16;strokeColor=#b85450;" vertex="1" parent="1">
          <mxGeometry x="1440" y="200" width="80" height="80" as="geometry" />
        </mxCell>
        <mxCell id="9e8V8WB4BOfyPJtOuMQp-24" value="&lt;b style=&quot;font-size: 24px&quot;&gt;r&lt;/b&gt;&lt;b style=&quot;font-size: 20px&quot;&gt;&lt;sub&gt;6&lt;/sub&gt;&lt;/b&gt;" style="ellipse;whiteSpace=wrap;html=1;aspect=fixed;rounded=0;fillColor=#e1d5e7;fontSize=16;strokeColor=#9673a6;" vertex="1" parent="1">
          <mxGeometry x="1560" y="200" width="80" height="80" as="geometry" />
        </mxCell>
        <mxCell id="9e8V8WB4BOfyPJtOuMQp-25" style="edgeStyle=none;rounded=0;jumpStyle=arc;html=1;exitX=1;exitY=0.5;entryX=0;entryY=0.5;dashed=1;startArrow=none;startFill=0;endArrow=none;endFill=0;jettySize=auto;orthogonalLoop=1;strokeColor=#000000;strokeWidth=2;fontSize=16;fontColor=#000000;" edge="1" parent="1" source="9e8V8WB4BOfyPJtOuMQp-26" target="9e8V8WB4BOfyPJtOuMQp-28">
          <mxGeometry relative="1" as="geometry" />
        </mxCell>
        <mxCell id="9e8V8WB4BOfyPJtOuMQp-26" value="&lt;b style=&quot;font-size: 24px&quot;&gt;r&lt;sub&gt;1&lt;/sub&gt;&lt;/b&gt;" style="ellipse;whiteSpace=wrap;html=1;aspect=fixed;rounded=0;fillColor=#dae8fc;fontSize=16;strokeColor=#6c8ebf;" vertex="1" parent="1">
          <mxGeometry x="1320" y="320" width="80" height="80" as="geometry" />
        </mxCell>
        <mxCell id="9e8V8WB4BOfyPJtOuMQp-27" value="&lt;b style=&quot;font-size: 24px&quot;&gt;r&lt;/b&gt;&lt;b style=&quot;font-size: 20px&quot;&gt;&lt;sub&gt;3&lt;/sub&gt;&lt;/b&gt;" style="ellipse;whiteSpace=wrap;html=1;aspect=fixed;rounded=0;fillColor=#f5f5f5;fontSize=16;strokeColor=#666666;" vertex="1" parent="1">
          <mxGeometry x="1440" y="320" width="80" height="80" as="geometry" />
        </mxCell>
        <mxCell id="9e8V8WB4BOfyPJtOuMQp-28" value="&lt;b style=&quot;font-size: 24px&quot;&gt;r&lt;/b&gt;&lt;b style=&quot;font-size: 20px&quot;&gt;&lt;sub&gt;5&lt;/sub&gt;&lt;/b&gt;" style="ellipse;whiteSpace=wrap;html=1;aspect=fixed;rounded=0;fillColor=#dae8fc;fontSize=16;strokeColor=#6c8ebf;" vertex="1" parent="1">
          <mxGeometry x="1560" y="320" width="80" height="80" as="geometry" />
        </mxCell>
        <mxCell id="9e8V8WB4BOfyPJtOuMQp-29" value="&lt;b style=&quot;font-size: 24px&quot;&gt;r&lt;/b&gt;&lt;b style=&quot;font-size: 20px&quot;&gt;&lt;sub&gt;7&lt;/sub&gt;&lt;/b&gt;" style="ellipse;whiteSpace=wrap;html=1;aspect=fixed;rounded=0;fillColor=#ffe6cc;fontSize=16;strokeColor=#d79b00;" vertex="1" parent="1">
          <mxGeometry x="1560" y="80" width="80" height="80" as="geometry" />
        </mxCell>
        <mxCell id="9e8V8WB4BOfyPJtOuMQp-30" value="&lt;b style=&quot;font-size: 24px&quot;&gt;r&lt;/b&gt;&lt;b style=&quot;font-size: 20px&quot;&gt;&lt;sub&gt;2&lt;/sub&gt;&lt;/b&gt;" style="ellipse;whiteSpace=wrap;html=1;aspect=fixed;rounded=0;fillColor=#d5e8d4;fontSize=16;strokeColor=#82b366;" vertex="1" parent="1">
          <mxGeometry x="1320" y="200" width="80" height="80" as="geometry" />
        </mxCell>
        <mxCell id="9e8V8WB4BOfyPJtOuMQp-31" value="Configuration 1" style="text;html=1;strokeColor=none;fillColor=none;align=center;verticalAlign=middle;whiteSpace=wrap;rounded=0;fontSize=16;fontStyle=1" vertex="1" parent="1">
          <mxGeometry x="970" y="430" width="140" height="20" as="geometry" />
        </mxCell>
        <mxCell id="9e8V8WB4BOfyPJtOuMQp-32" value="Configuration 2" style="text;html=1;strokeColor=none;fillColor=none;align=center;verticalAlign=middle;whiteSpace=wrap;rounded=0;fontSize=16;fontStyle=1" vertex="1" parent="1">
          <mxGeometry x="1410" y="430" width="140" height="20" as="geometry" />
        </mxCell>
        <mxCell id="9e8V8WB4BOfyPJtOuMQp-33" style="edgeStyle=orthogonalEdgeStyle;rounded=0;orthogonalLoop=1;jettySize=auto;html=1;exitX=1;exitY=0.5;exitDx=0;exitDy=0;entryX=0;entryY=0.5;entryDx=0;entryDy=0;fontSize=24;dashed=1;endArrow=none;endFill=0;strokeWidth=2;" edge="1" parent="1" source="9e8V8WB4BOfyPJtOuMQp-34" target="9e8V8WB4BOfyPJtOuMQp-35">
          <mxGeometry relative="1" as="geometry" />
        </mxCell>
        <mxCell id="9e8V8WB4BOfyPJtOuMQp-34" value="&lt;b&gt;r&lt;sub&gt;1&lt;/sub&gt;&lt;/b&gt;" style="ellipse;whiteSpace=wrap;html=1;aspect=fixed;fontStyle=1;fontSize=24;" vertex="1" parent="1">
          <mxGeometry x="201" y="1120" width="80" height="80" as="geometry" />
        </mxCell>
        <mxCell id="9e8V8WB4BOfyPJtOuMQp-35" value="&lt;b&gt;r&lt;/b&gt;&lt;b style=&quot;font-size: 20px&quot;&gt;&lt;sub&gt;3&lt;/sub&gt;&lt;/b&gt;" style="ellipse;whiteSpace=wrap;html=1;aspect=fixed;fontStyle=1;fontSize=24;" vertex="1" parent="1">
          <mxGeometry x="601" y="1120" width="80" height="80" as="geometry" />
        </mxCell>
        <mxCell id="9e8V8WB4BOfyPJtOuMQp-36" value="&lt;b&gt;r&lt;/b&gt;&lt;b style=&quot;font-size: 20px&quot;&gt;&lt;sub&gt;4&lt;/sub&gt;&lt;/b&gt;" style="ellipse;whiteSpace=wrap;html=1;aspect=fixed;fontStyle=1;fontSize=24;" vertex="1" parent="1">
          <mxGeometry x="401" y="1280" width="80" height="80" as="geometry" />
        </mxCell>
        <mxCell id="9e8V8WB4BOfyPJtOuMQp-37" value="&lt;b&gt;r&lt;/b&gt;&lt;b style=&quot;font-size: 20px&quot;&gt;&lt;sub&gt;2&lt;/sub&gt;&lt;/b&gt;" style="ellipse;whiteSpace=wrap;html=1;aspect=fixed;fontStyle=1;fontSize=24;" vertex="1" parent="1">
          <mxGeometry x="401" y="1120" width="80" height="80" as="geometry" />
        </mxCell>
        <mxCell id="9e8V8WB4BOfyPJtOuMQp-38" value="NOBS" style="text;html=1;strokeColor=none;fillColor=none;align=center;verticalAlign=middle;whiteSpace=wrap;rounded=0;fontSize=24;" vertex="1" parent="1">
          <mxGeometry x="221" y="1100" width="40" height="20" as="geometry" />
        </mxCell>
        <mxCell id="9e8V8WB4BOfyPJtOuMQp-39" value="NOBS" style="text;html=1;strokeColor=none;fillColor=none;align=center;verticalAlign=middle;whiteSpace=wrap;rounded=0;fontSize=24;" vertex="1" parent="1">
          <mxGeometry x="621" y="1100" width="40" height="20" as="geometry" />
        </mxCell>
        <mxCell id="9e8V8WB4BOfyPJtOuMQp-40" value="NOBS" style="text;html=1;strokeColor=none;fillColor=none;align=center;verticalAlign=middle;whiteSpace=wrap;rounded=0;fontSize=24;" vertex="1" parent="1">
          <mxGeometry x="421" y="1360" width="40" height="20" as="geometry" />
        </mxCell>
        <mxCell id="9e8V8WB4BOfyPJtOuMQp-41" value="OBS" style="text;html=1;strokeColor=none;fillColor=none;align=center;verticalAlign=middle;whiteSpace=wrap;rounded=0;fontSize=24;" vertex="1" parent="1">
          <mxGeometry x="421" y="1100" width="40" height="20" as="geometry" />
        </mxCell>
        <mxCell id="9e8V8WB4BOfyPJtOuMQp-42" style="edgeStyle=orthogonalEdgeStyle;rounded=0;orthogonalLoop=1;jettySize=auto;html=1;exitX=1;exitY=0.5;exitDx=0;exitDy=0;entryX=0;entryY=0.5;entryDx=0;entryDy=0;fontSize=24;dashed=1;endArrow=none;endFill=0;strokeWidth=2;" edge="1" parent="1" source="9e8V8WB4BOfyPJtOuMQp-43" target="9e8V8WB4BOfyPJtOuMQp-44">
          <mxGeometry relative="1" as="geometry" />
        </mxCell>
        <mxCell id="9e8V8WB4BOfyPJtOuMQp-43" value="&lt;b&gt;r&lt;sub&gt;1&lt;/sub&gt;&lt;/b&gt;" style="ellipse;whiteSpace=wrap;html=1;aspect=fixed;fontStyle=1;fontSize=24;" vertex="1" parent="1">
          <mxGeometry x="761" y="1120" width="80" height="80" as="geometry" />
        </mxCell>
        <mxCell id="9e8V8WB4BOfyPJtOuMQp-44" value="&lt;b&gt;r&lt;/b&gt;&lt;b style=&quot;font-size: 20px&quot;&gt;&lt;sub&gt;3&lt;/sub&gt;&lt;/b&gt;" style="ellipse;whiteSpace=wrap;html=1;aspect=fixed;fontStyle=1;fontSize=24;" vertex="1" parent="1">
          <mxGeometry x="1161" y="1120" width="80" height="80" as="geometry" />
        </mxCell>
        <mxCell id="9e8V8WB4BOfyPJtOuMQp-45" value="&lt;b&gt;r&lt;/b&gt;&lt;b style=&quot;font-size: 20px&quot;&gt;&lt;sub&gt;4&lt;/sub&gt;&lt;/b&gt;" style="ellipse;whiteSpace=wrap;html=1;aspect=fixed;fontStyle=1;fontSize=24;" vertex="1" parent="1">
          <mxGeometry x="961" y="1280" width="80" height="80" as="geometry" />
        </mxCell>
        <mxCell id="9e8V8WB4BOfyPJtOuMQp-46" value="NOBS" style="text;html=1;strokeColor=none;fillColor=none;align=center;verticalAlign=middle;whiteSpace=wrap;rounded=0;fontSize=24;" vertex="1" parent="1">
          <mxGeometry x="781" y="1100" width="40" height="20" as="geometry" />
        </mxCell>
        <mxCell id="9e8V8WB4BOfyPJtOuMQp-47" value="NOBS" style="text;html=1;strokeColor=none;fillColor=none;align=center;verticalAlign=middle;whiteSpace=wrap;rounded=0;fontSize=24;" vertex="1" parent="1">
          <mxGeometry x="1181" y="1100" width="40" height="20" as="geometry" />
        </mxCell>
        <mxCell id="9e8V8WB4BOfyPJtOuMQp-48" value="NOBS" style="text;html=1;strokeColor=none;fillColor=none;align=center;verticalAlign=middle;whiteSpace=wrap;rounded=0;fontSize=24;" vertex="1" parent="1">
          <mxGeometry x="981" y="1360" width="40" height="20" as="geometry" />
        </mxCell>
        <mxCell id="9e8V8WB4BOfyPJtOuMQp-49" style="edgeStyle=orthogonalEdgeStyle;rounded=0;orthogonalLoop=1;jettySize=auto;html=1;exitX=0.5;exitY=1;exitDx=0;exitDy=0;entryX=0.5;entryY=0;entryDx=0;entryDy=0;dashed=1;endArrow=none;endFill=0;strokeWidth=2;fontSize=24;" edge="1" parent="1" source="9e8V8WB4BOfyPJtOuMQp-50" target="9e8V8WB4BOfyPJtOuMQp-45">
          <mxGeometry relative="1" as="geometry" />
        </mxCell>
        <mxCell id="9e8V8WB4BOfyPJtOuMQp-50" value="&lt;b&gt;r&lt;/b&gt;&lt;b style=&quot;font-size: 20px&quot;&gt;&lt;sub&gt;5&lt;/sub&gt;&lt;/b&gt;" style="ellipse;whiteSpace=wrap;html=1;aspect=fixed;fontStyle=1;fontSize=24;" vertex="1" parent="1">
          <mxGeometry x="961" y="960" width="80" height="80" as="geometry" />
        </mxCell>
        <mxCell id="9e8V8WB4BOfyPJtOuMQp-51" value="NOBS" style="text;html=1;strokeColor=none;fillColor=none;align=center;verticalAlign=middle;whiteSpace=wrap;rounded=0;fontSize=24;" vertex="1" parent="1">
          <mxGeometry x="981" y="940" width="40" height="20" as="geometry" />
        </mxCell>
        <mxCell id="9e8V8WB4BOfyPJtOuMQp-52" value="&lt;b&gt;r&lt;/b&gt;&lt;b style=&quot;font-size: 20px&quot;&gt;&lt;sub&gt;2&lt;/sub&gt;&lt;/b&gt;" style="ellipse;whiteSpace=wrap;html=1;aspect=fixed;fontStyle=1;fontSize=24;" vertex="1" parent="1">
          <mxGeometry x="961" y="1120" width="80" height="80" as="geometry" />
        </mxCell>
        <mxCell id="9e8V8WB4BOfyPJtOuMQp-53" value="" style="endArrow=none;dashed=1;html=1;dashPattern=1 3;strokeWidth=2;fontSize=24;" edge="1" parent="1">
          <mxGeometry width="50" height="50" relative="1" as="geometry">
            <mxPoint x="721" y="1400" as="sourcePoint" />
            <mxPoint x="721" y="920" as="targetPoint" />
          </mxGeometry>
        </mxCell>
        <mxCell id="9e8V8WB4BOfyPJtOuMQp-54" value="OBS" style="text;html=1;strokeColor=none;fillColor=none;align=center;verticalAlign=middle;whiteSpace=wrap;rounded=0;fontSize=24;" vertex="1" parent="1">
          <mxGeometry x="1010" y="1100" width="40" height="20" as="geometry" />
        </mxCell>
        <mxCell id="9e8V8WB4BOfyPJtOuMQp-55" style="edgeStyle=orthogonalEdgeStyle;rounded=0;orthogonalLoop=1;jettySize=auto;html=1;exitX=1;exitY=0.5;exitDx=0;exitDy=0;entryX=0;entryY=0.5;entryDx=0;entryDy=0;fontSize=24;dashed=1;endArrow=none;endFill=0;strokeWidth=2;" edge="1" parent="1" source="9e8V8WB4BOfyPJtOuMQp-56" target="9e8V8WB4BOfyPJtOuMQp-57">
          <mxGeometry relative="1" as="geometry" />
        </mxCell>
        <mxCell id="9e8V8WB4BOfyPJtOuMQp-56" value="&lt;b&gt;r&lt;sub&gt;1&lt;/sub&gt;&lt;/b&gt;" style="ellipse;whiteSpace=wrap;html=1;aspect=fixed;fontStyle=1;fontSize=24;" vertex="1" parent="1">
          <mxGeometry x="200" y="1640" width="80" height="80" as="geometry" />
        </mxCell>
        <mxCell id="9e8V8WB4BOfyPJtOuMQp-57" value="&lt;b&gt;r&lt;/b&gt;&lt;b style=&quot;font-size: 20px&quot;&gt;&lt;sub&gt;3&lt;/sub&gt;&lt;/b&gt;" style="ellipse;whiteSpace=wrap;html=1;aspect=fixed;fontStyle=1;fontSize=24;" vertex="1" parent="1">
          <mxGeometry x="600" y="1640" width="80" height="80" as="geometry" />
        </mxCell>
        <mxCell id="9e8V8WB4BOfyPJtOuMQp-58" value="&lt;b&gt;r&lt;/b&gt;&lt;b style=&quot;font-size: 20px&quot;&gt;&lt;sub&gt;4&lt;/sub&gt;&lt;/b&gt;" style="ellipse;whiteSpace=wrap;html=1;aspect=fixed;fontStyle=1;fontSize=24;" vertex="1" parent="1">
          <mxGeometry x="400" y="1800" width="80" height="80" as="geometry" />
        </mxCell>
        <mxCell id="9e8V8WB4BOfyPJtOuMQp-59" value="&lt;b&gt;r&lt;/b&gt;&lt;b style=&quot;font-size: 20px&quot;&gt;&lt;sub&gt;2&lt;/sub&gt;&lt;/b&gt;" style="ellipse;whiteSpace=wrap;html=1;aspect=fixed;fontStyle=1;fontSize=24;" vertex="1" parent="1">
          <mxGeometry x="400" y="1640" width="80" height="80" as="geometry" />
        </mxCell>
        <mxCell id="9e8V8WB4BOfyPJtOuMQp-60" value="NOBS" style="text;html=1;strokeColor=none;fillColor=none;align=center;verticalAlign=middle;whiteSpace=wrap;rounded=0;fontSize=24;" vertex="1" parent="1">
          <mxGeometry x="220" y="1620" width="40" height="20" as="geometry" />
        </mxCell>
        <mxCell id="9e8V8WB4BOfyPJtOuMQp-61" value="NOBS" style="text;html=1;strokeColor=none;fillColor=none;align=center;verticalAlign=middle;whiteSpace=wrap;rounded=0;fontSize=24;" vertex="1" parent="1">
          <mxGeometry x="620" y="1620" width="40" height="20" as="geometry" />
        </mxCell>
        <mxCell id="9e8V8WB4BOfyPJtOuMQp-62" value="NOBS" style="text;html=1;strokeColor=none;fillColor=none;align=center;verticalAlign=middle;whiteSpace=wrap;rounded=0;fontSize=24;" vertex="1" parent="1">
          <mxGeometry x="420" y="1880" width="40" height="20" as="geometry" />
        </mxCell>
        <mxCell id="9e8V8WB4BOfyPJtOuMQp-63" value="OBS&lt;br&gt;odd" style="text;html=1;strokeColor=none;fillColor=none;align=center;verticalAlign=middle;whiteSpace=wrap;rounded=0;fontSize=24;" vertex="1" parent="1">
          <mxGeometry x="420" y="1590" width="40" height="50" as="geometry" />
        </mxCell>
        <mxCell id="9e8V8WB4BOfyPJtOuMQp-64" style="edgeStyle=orthogonalEdgeStyle;rounded=0;orthogonalLoop=1;jettySize=auto;html=1;exitX=1;exitY=0.5;exitDx=0;exitDy=0;entryX=0;entryY=0.5;entryDx=0;entryDy=0;fontSize=24;dashed=1;endArrow=none;endFill=0;strokeWidth=2;" edge="1" parent="1" source="9e8V8WB4BOfyPJtOuMQp-65" target="9e8V8WB4BOfyPJtOuMQp-66">
          <mxGeometry relative="1" as="geometry" />
        </mxCell>
        <mxCell id="9e8V8WB4BOfyPJtOuMQp-65" value="&lt;b&gt;r&lt;sub&gt;1&lt;/sub&gt;&lt;/b&gt;" style="ellipse;whiteSpace=wrap;html=1;aspect=fixed;fontStyle=1;fontSize=24;" vertex="1" parent="1">
          <mxGeometry x="760" y="1640" width="80" height="80" as="geometry" />
        </mxCell>
        <mxCell id="9e8V8WB4BOfyPJtOuMQp-66" value="&lt;b&gt;r&lt;/b&gt;&lt;b style=&quot;font-size: 20px&quot;&gt;&lt;sub&gt;3&lt;/sub&gt;&lt;/b&gt;" style="ellipse;whiteSpace=wrap;html=1;aspect=fixed;fontStyle=1;fontSize=24;" vertex="1" parent="1">
          <mxGeometry x="1160" y="1640" width="80" height="80" as="geometry" />
        </mxCell>
        <mxCell id="9e8V8WB4BOfyPJtOuMQp-67" value="&lt;b&gt;r&lt;/b&gt;&lt;b style=&quot;font-size: 20px&quot;&gt;&lt;sub&gt;4&lt;/sub&gt;&lt;/b&gt;" style="ellipse;whiteSpace=wrap;html=1;aspect=fixed;fontStyle=1;fontSize=24;" vertex="1" parent="1">
          <mxGeometry x="960" y="1800" width="80" height="80" as="geometry" />
        </mxCell>
        <mxCell id="9e8V8WB4BOfyPJtOuMQp-68" value="NOBS" style="text;html=1;strokeColor=none;fillColor=none;align=center;verticalAlign=middle;whiteSpace=wrap;rounded=0;fontSize=24;" vertex="1" parent="1">
          <mxGeometry x="780" y="1620" width="40" height="20" as="geometry" />
        </mxCell>
        <mxCell id="9e8V8WB4BOfyPJtOuMQp-69" value="NOBS" style="text;html=1;strokeColor=none;fillColor=none;align=center;verticalAlign=middle;whiteSpace=wrap;rounded=0;fontSize=24;" vertex="1" parent="1">
          <mxGeometry x="1180" y="1620" width="40" height="20" as="geometry" />
        </mxCell>
        <mxCell id="9e8V8WB4BOfyPJtOuMQp-70" value="NOBS" style="text;html=1;strokeColor=none;fillColor=none;align=center;verticalAlign=middle;whiteSpace=wrap;rounded=0;fontSize=24;" vertex="1" parent="1">
          <mxGeometry x="980" y="1880" width="40" height="20" as="geometry" />
        </mxCell>
        <mxCell id="9e8V8WB4BOfyPJtOuMQp-71" style="edgeStyle=orthogonalEdgeStyle;rounded=0;orthogonalLoop=1;jettySize=auto;html=1;exitX=0.5;exitY=1;exitDx=0;exitDy=0;entryX=0.5;entryY=0;entryDx=0;entryDy=0;dashed=1;endArrow=none;endFill=0;strokeWidth=2;fontSize=24;" edge="1" parent="1" source="9e8V8WB4BOfyPJtOuMQp-72" target="9e8V8WB4BOfyPJtOuMQp-67">
          <mxGeometry relative="1" as="geometry" />
        </mxCell>
        <mxCell id="9e8V8WB4BOfyPJtOuMQp-72" value="&lt;b&gt;r&lt;/b&gt;&lt;b style=&quot;font-size: 20px&quot;&gt;&lt;sub&gt;5&lt;/sub&gt;&lt;/b&gt;" style="ellipse;whiteSpace=wrap;html=1;aspect=fixed;fontStyle=1;fontSize=24;" vertex="1" parent="1">
          <mxGeometry x="960" y="1480" width="80" height="80" as="geometry" />
        </mxCell>
        <mxCell id="9e8V8WB4BOfyPJtOuMQp-73" value="NOBS" style="text;html=1;strokeColor=none;fillColor=none;align=center;verticalAlign=middle;whiteSpace=wrap;rounded=0;fontSize=24;" vertex="1" parent="1">
          <mxGeometry x="980" y="1460" width="40" height="20" as="geometry" />
        </mxCell>
        <mxCell id="9e8V8WB4BOfyPJtOuMQp-74" value="&lt;b&gt;r&lt;/b&gt;&lt;b style=&quot;font-size: 20px&quot;&gt;&lt;sub&gt;2&lt;/sub&gt;&lt;/b&gt;" style="ellipse;whiteSpace=wrap;html=1;aspect=fixed;fontStyle=1;fontSize=24;" vertex="1" parent="1">
          <mxGeometry x="960" y="1640" width="80" height="80" as="geometry" />
        </mxCell>
        <mxCell id="9e8V8WB4BOfyPJtOuMQp-75" value="" style="endArrow=none;dashed=1;html=1;dashPattern=1 3;strokeWidth=2;fontSize=24;" edge="1" parent="1">
          <mxGeometry width="50" height="50" relative="1" as="geometry">
            <mxPoint x="720" y="1920" as="sourcePoint" />
            <mxPoint x="720" y="1440" as="targetPoint" />
          </mxGeometry>
        </mxCell>
        <mxCell id="9e8V8WB4BOfyPJtOuMQp-76" value="OBS&lt;br&gt;even" style="text;html=1;strokeColor=none;fillColor=none;align=center;verticalAlign=middle;whiteSpace=wrap;rounded=0;fontSize=24;" vertex="1" parent="1">
          <mxGeometry x="1010" y="1590" width="40" height="50" as="geometry" />
        </mxCell>
        <mxCell id="9e8V8WB4BOfyPJtOuMQp-77" value="" style="ellipse;whiteSpace=wrap;html=1;shadow=0;strokeColor=#000000;strokeWidth=1;fillColor=#000000;gradientColor=none;" vertex="1" parent="1">
          <mxGeometry x="40" y="100" width="40" height="40" as="geometry" />
        </mxCell>
        <mxCell id="9e8V8WB4BOfyPJtOuMQp-78" value="" style="ellipse;whiteSpace=wrap;html=1;shadow=0;strokeColor=#000000;strokeWidth=1;fillColor=#ffffff;gradientColor=none;aspect=fixed;" vertex="1" parent="1">
          <mxGeometry x="40" y="40" width="40" height="40" as="geometry" />
        </mxCell>
        <mxCell id="9e8V8WB4BOfyPJtOuMQp-79" value="" style="verticalLabelPosition=bottom;align=center;dashed=0;html=1;verticalAlign=top;shape=stencil(lVTRboMwDPwaHkEsGar2OLHuBzZpzy41bdSQRE5W6N8vELo1okEdQiI+4/PZh8h4bY9gMGMlWIONy/hbxtgZSMBOepj5zDGAVRlCBR0G5MMhdB75JDAhZx3pE/Zi7+YioY5IwoVsf0vEt1n56sHx5nWjlfLthVY2ytzkPTcI5SIFX4HY+B4dOqSAzkKHKLrMUVFN8ft/2mwfaVO8VNUDrXjtkdS4vN5BczqQ/lb7uwJRSmEsLl3p4/D+7Ck5iaa8bjXhippWSBksTy10fKPRUpMPw3NSkjFeTteKFwbGj2iRuKY7fca/QZ9ZsYlm3RQ8yX2lAGr8QQIdMPfnvJVwCNVPgYtmdjYbS5c4tj2iWZYNsYRyyGEQNiftYLT8njW/+tf0NlLb5KY9ntjYmk9T3cLlCQ0/hgn4AQ==);shadow=0;strokeColor=#000000;strokeWidth=1;fillColor=#ffffff;gradientColor=none;rotation=225;direction=south;aspect=fixed;" vertex="1" parent="1">
          <mxGeometry x="40" y="160" width="40" height="40" as="geometry" />
        </mxCell>
        <mxCell id="9e8V8WB4BOfyPJtOuMQp-80" value="" style="verticalLabelPosition=bottom;align=center;dashed=0;html=1;verticalAlign=top;shape=stencil(lVTRboMwDPwaHkEsGar2OLHuBzZpzy41bdSQRE5W6N8vELo1okEdQiI+4/PZh8h4bY9gMGMlWIONy/hbxtgZSMBOepj5zDGAVRlCBR0G5MMhdB75JDAhZx3pE/Zi7+YioY5IwoVsf0vEt1n56sHx5nWjlfLthVY2ytzkPTcI5SIFX4HY+B4dOqSAzkKHKLrMUVFN8ft/2mwfaVO8VNUDrXjtkdS4vN5BczqQ/lb7uwJRSmEsLl3p4/D+7Ck5iaa8bjXhippWSBksTy10fKPRUpMPw3NSkjFeTteKFwbGj2iRuKY7fca/QZ9ZsYlm3RQ8yX2lAGr8QQIdMPfnvJVwCNVPgYtmdjYbS5c4tj2iWZYNsYRyyGEQNiftYLT8njW/+tf0NlLb5KY9ntjYmk9T3cLlCQ0/hgn4AQ==);shadow=0;strokeColor=#000000;strokeWidth=1;fillColor=#ffffff;gradientColor=none;rotation=45;direction=south;aspect=fixed;" vertex="1" parent="1">
          <mxGeometry x="40" y="220" width="40" height="40" as="geometry" />
        </mxCell>
        <mxCell id="9e8V8WB4BOfyPJtOuMQp-81" value="" style="ellipse;whiteSpace=wrap;html=1;shadow=0;strokeColor=#000000;strokeWidth=3;fillColor=none;gradientColor=#FF0000;fontSize=16;" vertex="1" parent="1">
          <mxGeometry y="440" width="120" height="80" as="geometry" />
        </mxCell>
        <mxCell id="9e8V8WB4BOfyPJtOuMQp-82" value="" style="ellipse;whiteSpace=wrap;html=1;shadow=0;strokeColor=#000000;strokeWidth=1;fillColor=none;gradientColor=#FF0000;fontSize=16;" vertex="1" parent="1">
          <mxGeometry y="320" width="120" height="80" as="geometry" />
        </mxCell>
        <mxCell id="9e8V8WB4BOfyPJtOuMQp-83" value="Inner circle" style="text;html=1;strokeColor=none;fillColor=none;align=center;verticalAlign=middle;whiteSpace=wrap;shadow=0;fontSize=20;fontStyle=5" vertex="1" parent="1">
          <mxGeometry x="300" y="10" width="200" height="20" as="geometry" />
        </mxCell>
        <mxCell id="9e8V8WB4BOfyPJtOuMQp-84" value="Outer circle contour" style="text;html=1;strokeColor=none;fillColor=none;align=center;verticalAlign=middle;whiteSpace=wrap;shadow=0;fontSize=20;fontStyle=5" vertex="1" parent="1">
          <mxGeometry x="300" y="290" width="200" height="20" as="geometry" />
        </mxCell>
        <mxCell id="9e8V8WB4BOfyPJtOuMQp-85" value="&lt;font style=&quot;font-size: 16px&quot;&gt;Both White&lt;/font&gt;" style="text;html=1;strokeColor=none;fillColor=none;align=center;verticalAlign=middle;whiteSpace=wrap;shadow=0;fontSize=20;" vertex="1" parent="1">
          <mxGeometry x="320" y="50" width="160" height="20" as="geometry" />
        </mxCell>
        <mxCell id="9e8V8WB4BOfyPJtOuMQp-86" value="&lt;font style=&quot;font-size: 16px&quot;&gt;Both Black&lt;/font&gt;" style="text;html=1;strokeColor=none;fillColor=none;align=center;verticalAlign=middle;whiteSpace=wrap;shadow=0;fontSize=20;" vertex="1" parent="1">
          <mxGeometry x="320" y="110" width="160" height="20" as="geometry" />
        </mxCell>
        <mxCell id="9e8V8WB4BOfyPJtOuMQp-87" value="&lt;font style=&quot;font-size: 16px&quot;&gt;r&lt;sub&gt;1&lt;/sub&gt; : White ; r&lt;sub&gt;2&lt;/sub&gt; : Black&lt;br&gt;&lt;/font&gt;" style="text;html=1;strokeColor=none;fillColor=none;align=center;verticalAlign=middle;whiteSpace=wrap;shadow=0;fontSize=20;" vertex="1" parent="1">
          <mxGeometry x="320" y="170" width="160" height="20" as="geometry" />
        </mxCell>
        <mxCell id="9e8V8WB4BOfyPJtOuMQp-88" style="edgeStyle=orthogonalEdgeStyle;curved=1;rounded=1;comic=0;html=1;exitX=1;exitY=0.25;entryX=1;entryY=0.25;startArrow=none;startFill=0;endArrow=block;endFill=1;endSize=3;jettySize=auto;orthogonalLoop=1;strokeColor=#FF0000;strokeWidth=2;fillColor=none;fontSize=20;" edge="1" parent="1" source="9e8V8WB4BOfyPJtOuMQp-87" target="9e8V8WB4BOfyPJtOuMQp-87">
          <mxGeometry relative="1" as="geometry" />
        </mxCell>
        <mxCell id="9e8V8WB4BOfyPJtOuMQp-89" value="&lt;font style=&quot;font-size: 16px&quot;&gt;Asymmetrical configuration&lt;/font&gt;" style="text;html=1;strokeColor=none;fillColor=none;align=center;verticalAlign=middle;whiteSpace=wrap;shadow=0;fontSize=20;" vertex="1" parent="1">
          <mxGeometry x="320" y="350" width="160" height="20" as="geometry" />
        </mxCell>
        <mxCell id="9e8V8WB4BOfyPJtOuMQp-90" value="&lt;font style=&quot;font-size: 16px&quot;&gt;Symmetrical configuration&lt;br&gt;(r&lt;sub&gt;1&lt;/sub&gt;&amp;nbsp;and r&lt;sub&gt;2&lt;/sub&gt;&amp;nbsp;in the same phase)&lt;br&gt;&lt;/font&gt;" style="text;html=1;strokeColor=none;fillColor=none;align=center;verticalAlign=middle;whiteSpace=wrap;shadow=0;fontSize=20;" vertex="1" parent="1">
          <mxGeometry x="275" y="470" width="250" height="20" as="geometry" />
        </mxCell>
        <mxCell id="9e8V8WB4BOfyPJtOuMQp-91" value="&lt;font style=&quot;font-size: 16px&quot;&gt;r&lt;sub&gt;1&lt;/sub&gt;&amp;nbsp;: Black ; r&lt;sub&gt;2&lt;/sub&gt;&amp;nbsp;: White&lt;br&gt;&lt;/font&gt;" style="text;html=1;strokeColor=none;fillColor=none;align=center;verticalAlign=middle;whiteSpace=wrap;shadow=0;fontSize=20;" vertex="1" parent="1">
          <mxGeometry x="320" y="230" width="160" height="20" as="geometry" />
        </mxCell>
        <mxCell id="9e8V8WB4BOfyPJtOuMQp-92" value="" style="endArrow=block;html=1;strokeColor=#000000;strokeWidth=2;fillColor=none;fontSize=16;endFill=1;" edge="1" parent="1">
          <mxGeometry width="50" height="50" relative="1" as="geometry">
            <mxPoint y="610" as="sourcePoint" />
            <mxPoint x="120" y="610" as="targetPoint" />
          </mxGeometry>
        </mxCell>
        <mxCell id="9e8V8WB4BOfyPJtOuMQp-93" value="" style="endArrow=diamond;html=1;strokeColor=#000000;strokeWidth=2;fillColor=none;fontSize=16;endFill=1;" edge="1" parent="1">
          <mxGeometry width="50" height="50" relative="1" as="geometry">
            <mxPoint y="650" as="sourcePoint" />
            <mxPoint x="120" y="650" as="targetPoint" />
          </mxGeometry>
        </mxCell>
        <mxCell id="9e8V8WB4BOfyPJtOuMQp-94" value="" style="endArrow=circle;html=1;strokeColor=#000000;strokeWidth=2;fillColor=none;fontSize=16;endFill=1;endSize=3;" edge="1" parent="1">
          <mxGeometry width="50" height="50" relative="1" as="geometry">
            <mxPoint y="690" as="sourcePoint" />
            <mxPoint x="120" y="690" as="targetPoint" />
          </mxGeometry>
        </mxCell>
        <mxCell id="9e8V8WB4BOfyPJtOuMQp-95" value="" style="endArrow=block;html=1;strokeColor=#FF0000;strokeWidth=2;fillColor=none;fontSize=16;endFill=1;" edge="1" parent="1">
          <mxGeometry width="50" height="50" relative="1" as="geometry">
            <mxPoint y="810" as="sourcePoint" />
            <mxPoint x="120" y="810" as="targetPoint" />
          </mxGeometry>
        </mxCell>
        <mxCell id="9e8V8WB4BOfyPJtOuMQp-96" value="" style="endArrow=block;html=1;strokeColor=#9673a6;strokeWidth=2;fillColor=#e1d5e7;fontSize=16;endFill=1;" edge="1" parent="1">
          <mxGeometry width="50" height="50" relative="1" as="geometry">
            <mxPoint y="850" as="sourcePoint" />
            <mxPoint x="120" y="850" as="targetPoint" />
          </mxGeometry>
        </mxCell>
        <mxCell id="9e8V8WB4BOfyPJtOuMQp-97" value="" style="endArrow=circle;html=1;strokeColor=#82b366;strokeWidth=2;fillColor=#d5e8d4;fontSize=16;endSize=3;endFill=1;" edge="1" parent="1">
          <mxGeometry width="50" height="50" relative="1" as="geometry">
            <mxPoint y="890" as="sourcePoint" />
            <mxPoint x="120" y="890" as="targetPoint" />
          </mxGeometry>
        </mxCell>
        <mxCell id="9e8V8WB4BOfyPJtOuMQp-98" value="Arrow type" style="text;html=1;strokeColor=none;fillColor=none;align=center;verticalAlign=middle;whiteSpace=wrap;shadow=0;fontSize=20;fontStyle=5" vertex="1" parent="1">
          <mxGeometry x="300" y="560" width="200" height="20" as="geometry" />
        </mxCell>
        <mxCell id="9e8V8WB4BOfyPJtOuMQp-99" value="Arrow colour" style="text;html=1;strokeColor=none;fillColor=none;align=center;verticalAlign=middle;whiteSpace=wrap;shadow=0;fontSize=20;fontStyle=5" vertex="1" parent="1">
          <mxGeometry x="300" y="720" width="200" height="20" as="geometry" />
        </mxCell>
        <mxCell id="9e8V8WB4BOfyPJtOuMQp-100" value="" style="endArrow=block;html=1;strokeColor=#000000;strokeWidth=2;fillColor=none;fontSize=16;endFill=1;" edge="1" parent="1">
          <mxGeometry width="50" height="50" relative="1" as="geometry">
            <mxPoint y="770" as="sourcePoint" />
            <mxPoint x="120" y="770" as="targetPoint" />
          </mxGeometry>
        </mxCell>
        <mxCell id="9e8V8WB4BOfyPJtOuMQp-101" value="Activate r&lt;sub&gt;1&lt;/sub&gt;" style="text;html=1;strokeColor=none;fillColor=none;align=center;verticalAlign=middle;whiteSpace=wrap;shadow=0;fontSize=16;" vertex="1" parent="1">
          <mxGeometry x="320" y="600" width="160" height="20" as="geometry" />
        </mxCell>
        <mxCell id="9e8V8WB4BOfyPJtOuMQp-102" value="Activate r&lt;sub&gt;2&lt;/sub&gt;" style="text;html=1;strokeColor=none;fillColor=none;align=center;verticalAlign=middle;whiteSpace=wrap;shadow=0;fontSize=16;" vertex="1" parent="1">
          <mxGeometry x="320" y="640" width="160" height="20" as="geometry" />
        </mxCell>
        <mxCell id="9e8V8WB4BOfyPJtOuMQp-103" value="Activate both" style="text;html=1;strokeColor=none;fillColor=none;align=center;verticalAlign=middle;whiteSpace=wrap;shadow=0;fontSize=16;" vertex="1" parent="1">
          <mxGeometry x="320" y="680" width="160" height="20" as="geometry" />
        </mxCell>
        <mxCell id="9e8V8WB4BOfyPJtOuMQp-104" value="Regular" style="text;html=1;strokeColor=none;fillColor=none;align=center;verticalAlign=middle;whiteSpace=wrap;shadow=0;fontSize=16;" vertex="1" parent="1">
          <mxGeometry x="320" y="760" width="160" height="20" as="geometry" />
        </mxCell>
        <mxCell id="9e8V8WB4BOfyPJtOuMQp-105" value="LOOK that leads to movement" style="text;html=1;strokeColor=none;fillColor=none;align=center;verticalAlign=middle;whiteSpace=wrap;shadow=0;fontSize=16;" vertex="1" parent="1">
          <mxGeometry x="280" y="800" width="240" height="20" as="geometry" />
        </mxCell>
        <mxCell id="9e8V8WB4BOfyPJtOuMQp-106" value="Switch r&lt;sub&gt;1&lt;/sub&gt;&amp;nbsp;and r&lt;sub&gt;2&lt;/sub&gt;" style="text;html=1;strokeColor=none;fillColor=none;align=center;verticalAlign=middle;whiteSpace=wrap;shadow=0;fontSize=16;" vertex="1" parent="1">
          <mxGeometry x="320" y="840" width="160" height="20" as="geometry" />
        </mxCell>
        <mxCell id="9e8V8WB4BOfyPJtOuMQp-107" value="Two different synchronous activations" style="text;html=1;strokeColor=none;fillColor=none;align=center;verticalAlign=middle;whiteSpace=wrap;shadow=0;fontSize=16;" vertex="1" parent="1">
          <mxGeometry x="200" y="880" width="400" height="20" as="geometry" />
        </mxCell>
      </root>
    </mxGraphModel>
  </diagram>
</mxfile>
